<svg width="1920" height="131" viewBox="0 0 1920 131" fill="none" xmlns="http://www.w3.org/2000/svg">
<path d="M0 38L431.322 107.032C439.395 108.324 447.661 107.617 455.396 104.973L744.959 5.99441C756.452 2.06581 768.77 1.19533 780.701 3.46851L1285.32 99.6087C1290.16 100.531 1295.11 100.733 1300.01 100.206L1920 33.65V130H0V38Z" fill="#4598D4"/>
<path d="M0 45L431.322 114.032C439.395 115.324 447.661 114.617 455.396 111.973L744.959 12.9944C756.452 9.06581 768.77 8.19533 780.701 10.4685L1285.29 106.604C1290.15 107.529 1295.12 107.729 1300.04 107.196L1920 40V131H0V45Z" fill="white"/>
<path d="M0 60L429.442 129.016C437.546 130.319 445.845 129.606 453.608 126.942L741.748 28.0413C753.281 24.0825 765.649 23.2053 777.626 25.4967L1279.92 121.591C1284.8 122.525 1289.8 122.726 1294.74 122.187L1920 54V131H0V60Z" fill="#4598D4"/>
</svg>
